<svg width="32" height="32" viewBox="0 0 32 32" fill="none" xmlns="http://www.w3.org/2000/svg">
  <rect width="32" height="32" rx="8" fill="#7c7cff"/>
  <path d="M16 6C13 6 10 8 9 11C8 14 9 16 10 17.5C11 19 12.5 20 14 21C15 21.7 15.5 22.5 16 24C16.5 22.5 17 21.7 18 21C19.5 20 21 19 22 17.5C23 16 24 14 23 11C22 8 19 6 16 6Z" fill="white" opacity="0.95"/>
  <path d="M12 18C13 17 14.5 16.5 16 16.5C17.5 16.5 19 17 20 18" stroke="#7c7cff" stroke-width="1.8" stroke-linecap="round"/>
  <circle cx="16" cy="13" r="2.5" fill="#7c7cff" opacity="0.8"/>
</svg>
